<svg width="47" height="52" viewBox="0 0 47 52" fill="none" xmlns="http://www.w3.org/2000/svg">
<path d="M18.0832 42.4562C18.2654 42.7718 18.6291 42.8689 18.9915 42.7403C25.9925 42.4562 27.032 41.54 32.2014 46.2698C32.4336 46.5883 32.8214 46.6721 33.137 46.4899C33.4526 46.3077 33.5615 45.9371 33.4142 45.5696C32.2014 38.6834 32.2014 38.0067 36.9625 32.3648C37.255 32.1151 37.3404 31.7589 37.1582 31.4432C36.9763 31.1282 36.625 31.024 36.2695 31.1644C28.1386 32.3648 28.1386 32.3648 23.0596 27.6349C22.8078 27.3112 22.4322 27.221 22.1171 27.4029C21.8015 27.5851 21.6799 27.9624 21.8468 28.3351C23.0596 35.5704 21.8468 38.0595 18.2985 41.54C17.9991 41.7777 17.9012 42.1411 18.0832 42.4562Z" fill="#564C44"/>
<path d="M42.3248 18.1581C45.6638 10.1256 41.1128 -2.103 25.6928 5.77865C-0.228941 19.028 -8.61072 62.1006 25.6928 38.1921" stroke="#564C44" stroke-width="5.67" stroke-linecap="round"/>
</svg>
