<svg width="47" height="52" viewBox="0 0 47 52" fill="none" xmlns="http://www.w3.org/2000/svg">
<path d="M18.0832 42.2205C18.2654 42.5361 18.6291 42.6331 18.9915 42.5046C25.9925 42.2205 27.032 41.3042 32.2014 46.0341C32.4336 46.3526 32.8214 46.4364 33.137 46.2542C33.4526 46.072 33.5615 45.7014 33.4142 45.3339C32.2014 38.4477 32.2014 37.771 36.9625 32.129C37.255 31.8794 37.3404 31.5231 37.1582 31.2075C36.9763 30.8924 36.625 30.7883 36.2695 30.9287C28.1386 32.129 28.1386 32.129 23.0596 27.3992C22.8078 27.0754 22.4322 26.9853 22.1171 27.1672C21.8015 27.3494 21.6799 27.7266 21.8468 28.0994C23.0596 35.3347 21.8468 37.8238 18.2985 41.3042C17.9991 41.542 17.9012 41.9054 18.0832 42.2205Z" fill="#ECD9C9"/>
<path d="M42.3248 17.9224C45.6638 9.88992 41.1128 -2.33872 25.6928 5.54293C-0.228941 18.7923 -8.61072 61.8649 25.6928 37.9564" stroke="#ECD9C9" stroke-width="5.67" stroke-linecap="round"/>
</svg>
